<?xml version="1.0" encoding="utf-8"?>
<!-- Generator: Adobe Illustrator 22.1.0, SVG Export Plug-In . SVG Version: 6.00 Build 0)  -->
<svg version="1.1"
	 id="svg2" inkscape:version="0.92.2 5c3e80d, 2017-08-06" sodipodi:docname="404.svg" xmlns:cc="http://creativecommons.org/ns#" xmlns:dc="http://purl.org/dc/elements/1.1/" xmlns:inkscape="http://www.inkscape.org/namespaces/inkscape" xmlns:rdf="http://www.w3.org/1999/02/22-rdf-syntax-ns#" xmlns:sodipodi="http://sodipodi.sourceforge.net/DTD/sodipodi-0.dtd" xmlns:svg="http://www.w3.org/2000/svg"
	 xmlns="http://www.w3.org/2000/svg" xmlns:xlink="http://www.w3.org/1999/xlink" x="0px" y="0px" viewBox="0 0 297.6 163.2"
	 style="enable-background:new 0 0 297.6 163.2;" xml:space="preserve">
<style type="text/css">
	.st0{fill:#E7F3FE;}
	.st1{fill:#A2DFF2;}
	.st2{fill:#96CFE0;}
	.st3{fill:#2E5B9A;}
	.st4{fill:#F09959;}
	.st5{fill:#E38540;}
	.st6{fill:#75A1DE;}
	.st7{fill:#A86B48;}
	.st8{fill:#3E6BAB;}
	.st9{fill:#F0CEB4;}
	.st10{fill:none;stroke:#C4C4C4;stroke-width:0.5;stroke-linecap:round;stroke-linejoin:round;stroke-dasharray:1.9846,1.9846;}
	.st11{fill:none;stroke:#C4C4C4;stroke-width:0.5;stroke-linecap:round;stroke-linejoin:round;}
	.st12{fill:none;stroke:#C4C4C4;stroke-width:0.5;stroke-linecap:round;stroke-linejoin:round;stroke-dasharray:2.0254,2.0254;}
	.st13{fill:none;stroke:#C4C4C4;stroke-width:0.5;stroke-linecap:round;stroke-linejoin:round;stroke-dasharray:1.9978,1.9978;}
	.st14{fill:#F7A96F;}
	.st15{fill:#B7E1FF;}
	.st16{fill:#FFFFFF;}
	.st17{fill:#9EC8FF;}
	.st18{fill:#9CD499;}
	.st19{fill:#C4C4C4;}
</style>
<g>
	<path class="st0" d="M35.3,149.7c0,0-21.1-26.2-8.4-51.1c12.7-24.9,36.7-19,70.5-44.3c41-30.7,69.8-32.4,106.4-19
		c20.7,7.6,24.1,38.8,57,58.2c29.7,17.5,5.5,47.3-10.1,51.9c-15.6,4.6-26.2,4.6-26.2,4.6L35.3,149.7z"/>
	<path class="st1" d="M160.9,95.4c-5.3,10.7-11.9,39.9-13.7,41.5c-1.8,1.6-12.2,7.8-14,10.8c-1.8,3-1,2-0.2,2.2
		c0.8,0.2,46,0.4,46,0.4s-5.2-31-5.8-31.2C172.7,118.9,160.9,95.4,160.9,95.4z"/>
	<path class="st2" d="M153.5,150.2c8.3,0.1,17.1,0.1,21.9,0.1l-6.6-39.5c-3.5-6.8-7.8-15.4-7.8-15.4c-0.7,1.3-1.3,3-2,4.8
		c-0.7,29.7,3.6,38,0.4,43.3C156.8,147.7,154.5,149.5,153.5,150.2z"/>
	<path class="st3" d="M247.4,152.3H30.2c-0.9,0-1.7-0.8-1.7-1.7c0-0.9,0.8-1.7,1.7-1.7h217.2c0.9,0,1.7,0.8,1.7,1.7
		C249,151.6,248.3,152.3,247.4,152.3z"/>
	<path class="st1" d="M188.7,82.5c7.5,6.9,24.2,13.5,24.2,13.5s2.5,23.5,0.8,36.8c-1.7,13.3-0.8,16-0.8,16h-34.5
		c0,0-4.6-6.4-13.1-26.4c-5.4-12.7-4.4-27-4.4-27l21-9.4L188.7,82.5z"/>
	<path class="st2" d="M178.5,148.8H213c0,0-1-2.7,0.8-16c1.4-10.9,0-28.8-0.6-34.8l-3.1-1.3c-7.9,2.3-12.4,14-13.7,25.5
		c-0.9,7.7-13.6,15.2-21.9,19.4C177,146.8,178.5,148.8,178.5,148.8z"/>
	<path class="st3" d="M170,58.4c-4.2,9.3,0.8,17.8,0.7,17.5c-0.2-0.4,6.3-15.6,6.3-15.6L170,58.4z"/>
	<path class="st4" d="M185.8,65.3l5.3,19.3c0.1,0.5,0,1.1-0.3,1.6c-1.2,1.5-3,4.7-6.5,5.7c-0.7,0.2-1.5,0.2-2.2,0.3
		c-0.7,0-1.3-0.5-1.5-1.2l-3.5-18.3L185.8,65.3z"/>
	<path class="st5" d="M184.8,66.9l-1.9,0.8l-5.9,4.8l3.2,16.2C185.5,85.4,186.3,83.1,184.8,66.9z"/>
	<path class="st4" d="M185.6,73.8c-1.2,6.3-5.9,10.6-10.6,9.6c-4.7-1.1-6.9-5.2-6.4-13.4c0.4-6.5,3.6-13.5,8.3-12.4
		C181.6,58.6,186.7,67.5,185.6,73.8z"/>
	<path class="st1" d="M212.9,96c7,1.6,8.3,15.7,10.5,30.7c0.3,1.7,1.6,16.3,1.6,16.3s0.1,2.7-2.5,4c-2.3,1.1-3.2,2-16.4,2.1
		c-12.7,0.1-29-0.4-29-0.4s-0.1-4.7,1.2-7c2-3.5,22-8.5,23.9-8.7c0.3-3.7-1.8-17.3,1.1-26.4c2-6.3,4.2-9.6,6.8-10.5
		C210.9,95.8,211.9,95.8,212.9,96z"/>
	<path class="st2" d="M184.2,149c6.3,0.1,14.8,0.2,21.9,0.1c13.2-0.1,14.1-1,16.4-2.1c2.7-1.3,2.8-3.6,2.8-3.6s-1.3-15.5-1.6-17.2
		c-1.5-10-3.1-21.5-6.7-27c3.5,10.2,4,18.7,4.1,22.4c0,1.9-0.1,4.4-0.7,6.2c-0.6,2-2.1,3.2-4.5,2.5c-4.8-1.3-10.8,1.5-10.8,1.5
		s4.5-1.6,8.8-0.1c4.3,1.5,13.1,11.2,3.5,14.8C214.4,147.6,196.8,148.5,184.2,149z"/>
	<path class="st2" d="M179.3,142.2c0,0,1.8-3,5.4-3c3.6,0,3.4,6,2.8,7.9c-0.5,2-2.7,2-2.7,2l-7.8-0.4L179.3,142.2z"/>
	<path class="st6" d="M171.2,150.4h-49c-0.9,0-1.5-0.7-1.5-1.5l0,0c0-0.9,0.7-1.5,1.5-1.5h49c0.9,0,1.5,0.7,1.5,1.5v0
		C172.7,149.8,172,150.4,171.2,150.4z"/>
	<path class="st4" d="M178.3,142.5c-7.6-2.8-9.7-1.7-11.4-2.2c-4.3-1.2-5.3-0.2-8.1,7.4c-0.5,1.5,1.1,1.6,2.7,1.6
		c1.6,0,3.6-3.1,4.2-3.5c0.6-0.4,2.3-0.5,2.3-0.5s-0.5,0-1.3,1.6c-0.8,1.6-1.8,2.2-0.5,2.2c1.2,0,1.4-2,3.7-1.6
		c2.3,0.4,1.4,1.6,7.2,1.5c5.8-0.1,10.1,0,10.1-3.5c-0.1-3.3,0.3-4.9-2.8-5.5C181.9,139.6,178.3,142.5,178.3,142.5z"/>
	<path class="st7" d="M178.4,142.5c5.1-0.6,3.6,5.8,3.1,6.3c-0.5,0.5,2.8,0.2,2.8,0.2s1.6-2.6,0.3-5.5c-1.3-2.9-4-3.1-4-3.1
		l-2.3,1.2L178.4,142.5z"/>
	<path class="st3" d="M183.8,142c-0.1,0.8-1.4,1.3-3,1.2c-1.6-0.1-2.8-0.9-2.8-1.7c0.1-0.8,1.4-1.3,3-1.2
		C182.6,140.4,183.8,141.2,183.8,142z"/>
	<path class="st8" d="M183.4,141.6c-0.1,0.7-1.3,1.2-2.7,1.1c-1.4-0.1-2.5-0.8-2.5-1.5c0.1-0.7,1.3-1.2,2.7-1.1
		C182.3,140.2,183.4,140.9,183.4,141.6z"/>
	<path class="st9" d="M182.5,141.2c0,0.5-0.9,0.9-1.9,0.8c-1-0.1-1.8-0.6-1.8-1.1c0-0.5,0.9-0.9,1.9-0.8
		C181.7,140.2,182.5,140.7,182.5,141.2z"/>
	<g>
		<g>
			<path class="st10" d="M120.2,140.7H70.5c-2.6,0-4.9-1.9-5.3-4.5l-6.5-35.8c-0.6-3.4,1.9-6.5,5.3-6.5h49.7c2.6,0,4.9,1.9,5.3,4.5
				l6.5,35.8C126.2,137.6,123.6,140.7,120.2,140.7z"/>
		</g>
		<g>
			<g>
				<path class="st11" d="M113.6,150l1,0c0-0.3,0-0.7-0.1-1"/>
				<path class="st12" d="M113.7,147.1c-0.8-1-1.9-1.7-3.2-1.7h-9.4c-1.7,0-3-1.5-3-3.3v-17.3c0-2.9-2.2-5.3-4.9-5.3h-4.9
					c-2.7,0-4.9,2.4-4.9,5.3v19.3c0,3.3,2.4,6,5.5,6l23.7-0.2"/>
			</g>
		</g>
		<g>
			<g>
				<path class="st11" d="M113.4,150l1,0c0-0.2-0.3-0.4-0.8-0.6"/>
				<path class="st13" d="M111.7,148.9c-0.5-0.1-1.1-0.1-1.7-0.1H99.7c-1.8,0-3.3-1.5-3.3-3.3v-20.3c0-2.9-2.3-5.2-5.2-5.2h-2.1
					c-2.9,0-5.2,2.3-5.2,5.2v19c0,3.1,2.4,5.6,5.4,5.8l23.1-0.1"/>
			</g>
		</g>
	</g>
	<path class="st4" d="M136.4,143.3c3.8-2.1,8.4-1.4,10.1,0.7c1.7,2.1,2,3.5-1.8,3.5c-3.8,0-11.4,0.3-12.7,0.1
		C130.8,147.5,136.4,143.3,136.4,143.3z"/>
	<path class="st4" d="M142,142c4.1-1,6.9,1.4,10.3,3.7c3,2,3.5,3.9,0.3,2.3c-4.8-2.4-7.6-2.7-7.6-2.7L142,142z"/>
	<path class="st4" d="M138.3,143.3c-2.1,0-3.9-0.7-5.3-0.5c-1.5,0.1-6.1,4.8-5.3,5.2c0.1,0,0.1,0.1,0.2,0.1c1.1,0.4,2.3,0,2.9-1
		c0.7-1,1.7-2.3,2.9-1.8c2.1,0.7,4.2,0.7,4.2,0.7L138.3,143.3z"/>
	<path class="st14" d="M137.1,148.3c-2.1-0.8,1.3-7.9,2.4-7.9s5.3,3.4,5.3,3.4s-1,0.6-4.4-0.6c-0.8-0.3-1.5,4.5-2.5,5.1
		S137.1,148.3,137.1,148.3z"/>
	<path class="st3" d="M168.6,73.7c-0.2,7.7,2.4,9.1,4.3,10.1c1.8,1.1,9.8-0.7,11-2.6c3-4.9,0.5-9.5,1.1-9.4c0.7,0.1,1.3,2,3,4.5
		c0.2,0.2,1.3,1.8,1.4,1.3c0.8-6.9,4.4-9.1,3.6-16.1c-0.6-5.2-3.9-4.8-3.9-4.8s-2.1-4.3-8.7-3.8c-4.4,0.3-8.4,2.1-12.9,3.2
		c-4.6,1.2,5.4,11.5,11.3,7.7c5.9-3.8,3,4.5,3.9,5.2c0.9,0.6,0.4,0.1,0.9,4.3c0.4,4.3-5,7-6.5,7.4c-4.9,1.2-5.8,0.3-6.9-1.5
		C169.2,77.5,168.6,73.7,168.6,73.7z"/>
	<path class="st4" d="M189.1,71.3c-0.6,2-2,3.2-3.1,2.8c-1.1-0.4-1.2-2-1-4.3c0.1-2,2-3.2,3.1-2.8C189.2,67.4,189.7,69.3,189.1,71.3
		z"/>
	<g>
		<g>
			<path class="st15" d="M77.2,66.1H42.6c-2.5,0-4.6-2.1-4.6-4.6V50.8c0-2.5,2.1-4.6,4.6-4.6h34.7c2.5,0,4.6,2.1,4.6,4.6v10.6
				C81.8,64,79.8,66.1,77.2,66.1z"/>
			<path class="st16" d="M76.9,65.1H42.9c-2.1,0-3.7-1.7-3.7-3.7v-6.3c0-2.1,1.7-3.7,3.7-3.7h34.1c2.1,0,3.7,1.7,3.7,3.7v6.3
				C80.6,63.5,79,65.1,76.9,65.1z"/>
			<g>
				<path class="st16" d="M40.7,49.2h-0.2c-0.4,0-0.8-0.3-0.8-0.8v0c0-0.4,0.3-0.8,0.8-0.8h0.2c0.4,0,0.8,0.3,0.8,0.8l0,0
					C41.5,48.9,41.1,49.2,40.7,49.2z"/>
				<path class="st16" d="M43.8,49.2h-0.2c-0.4,0-0.8-0.3-0.8-0.8v0c0-0.4,0.3-0.8,0.8-0.8h0.2c0.4,0,0.8,0.3,0.8,0.8l0,0
					C44.6,48.9,44.3,49.2,43.8,49.2z"/>
				<path class="st16" d="M47,49.2h-0.2c-0.4,0-0.8-0.3-0.8-0.8v0c0-0.4,0.3-0.8,0.8-0.8H47c0.4,0,0.8,0.3,0.8,0.8l0,0
					C47.7,48.9,47.4,49.2,47,49.2z"/>
			</g>
			<path class="st15" d="M79,54.4H57c-0.4,0-0.7-0.3-0.7-0.7c0-0.4,0.3-0.7,0.7-0.7H79c0.4,0,0.7,0.3,0.7,0.7
				C79.6,54.1,79.3,54.4,79,54.4z"/>
			<path class="st15" d="M62.4,64.6H40.5c-0.4,0-0.7-0.3-0.7-0.7c0-0.4,0.3-0.7,0.7-0.7h21.9c0.4,0,0.7,0.3,0.7,0.7
				C63.1,64.3,62.8,64.6,62.4,64.6z"/>
			<path class="st15" d="M66.1,64.6h-1.4c-0.4,0-0.7-0.3-0.7-0.7v0c0-0.4,0.3-0.7,0.7-0.7h1.4c0.4,0,0.7,0.3,0.7,0.7v0
				C66.7,64.3,66.4,64.6,66.1,64.6z"/>
			<path class="st15" d="M69.5,64.6h-1.4c-0.4,0-0.7-0.3-0.7-0.7v0c0-0.4,0.3-0.7,0.7-0.7h1.4c0.4,0,0.7,0.3,0.7,0.7v0
				C70.1,64.3,69.8,64.6,69.5,64.6z"/>
			<path class="st15" d="M79.2,57.3H42.8c-0.2,0-0.4-0.2-0.4-0.4c0-0.2,0.2-0.4,0.4-0.4h36.3c0.2,0,0.4,0.2,0.4,0.4
				C79.6,57.1,79.4,57.3,79.2,57.3z"/>
			<path class="st15" d="M79.2,59.2H42.8c-0.2,0-0.4-0.2-0.4-0.4c0-0.2,0.2-0.4,0.4-0.4h36.3c0.2,0,0.4,0.2,0.4,0.4
				C79.6,59,79.4,59.2,79.2,59.2z"/>
		</g>
		<g>
			<path class="st17" d="M87.2,80H52.5c-2.5,0-4.6-2.1-4.6-4.6V64.8c0-2.5,2.1-4.6,4.6-4.6h34.7c2.5,0,4.6,2.1,4.6,4.6v10.6
				C91.8,77.9,89.7,80,87.2,80z"/>
			<path class="st16" d="M86.8,79.1H52.8c-2.1,0-3.7-1.7-3.7-3.7v-6.3c0-2.1,1.7-3.7,3.7-3.7h34.1c2.1,0,3.7,1.7,3.7,3.7v6.3
				C90.6,77.4,88.9,79.1,86.8,79.1z"/>
			<g>
				<path class="st16" d="M50.6,63.2h-0.2c-0.4,0-0.8-0.3-0.8-0.8v0c0-0.4,0.3-0.8,0.8-0.8h0.2c0.4,0,0.8,0.3,0.8,0.8v0
					C51.4,62.8,51,63.2,50.6,63.2z"/>
				<path class="st16" d="M53.7,63.2h-0.2c-0.4,0-0.8-0.3-0.8-0.8v0c0-0.4,0.3-0.8,0.8-0.8h0.2c0.4,0,0.8,0.3,0.8,0.8v0
					C54.5,62.8,54.2,63.2,53.7,63.2z"/>
				<path class="st16" d="M56.9,63.2h-0.2c-0.4,0-0.8-0.3-0.8-0.8v0c0-0.4,0.3-0.8,0.8-0.8h0.2c0.4,0,0.8,0.3,0.8,0.8v0
					C57.6,62.8,57.3,63.2,56.9,63.2z"/>
			</g>
			<path class="st17" d="M88.9,68.4H66.9c-0.4,0-0.7-0.3-0.7-0.7c0-0.4,0.3-0.7,0.7-0.7h21.9c0.4,0,0.7,0.3,0.7,0.7
				C89.5,68.1,89.2,68.4,88.9,68.4z"/>
			<path class="st17" d="M72.4,78.5H50.4c-0.4,0-0.7-0.3-0.7-0.7c0-0.4,0.3-0.7,0.7-0.7h21.9c0.4,0,0.7,0.3,0.7,0.7
				C73,78.2,72.7,78.5,72.4,78.5z"/>
			<path class="st17" d="M76,78.5h-1.4c-0.4,0-0.7-0.3-0.7-0.7l0,0c0-0.4,0.3-0.7,0.7-0.7H76c0.4,0,0.7,0.3,0.7,0.7l0,0
				C76.6,78.2,76.3,78.5,76,78.5z"/>
			<path class="st17" d="M79.4,78.5H78c-0.4,0-0.7-0.3-0.7-0.7l0,0c0-0.4,0.3-0.7,0.7-0.7h1.4c0.4,0,0.7,0.3,0.7,0.7l0,0
				C80.1,78.2,79.8,78.5,79.4,78.5z"/>
			<path class="st17" d="M89.1,71.2H52.7c-0.2,0-0.4-0.2-0.4-0.4c0-0.2,0.2-0.4,0.4-0.4h36.3c0.2,0,0.4,0.2,0.4,0.4
				C89.5,71,89.3,71.2,89.1,71.2z"/>
			<path class="st17" d="M89.1,73.1H52.7c-0.2,0-0.4-0.2-0.4-0.4c0-0.2,0.2-0.4,0.4-0.4h36.3c0.2,0,0.4,0.2,0.4,0.4
				C89.5,72.9,89.3,73.1,89.1,73.1z"/>
		</g>
	</g>
	<g>
		<path class="st18" d="M107.4,75.1c0,3.1-2.6,5.7-5.7,5.7c-3.1,0-5.7-2.6-5.7-5.7c0-3.1,2.6-5.7,5.7-5.7
			C104.8,69.4,107.4,72,107.4,75.1z"/>
		<g>
			<path class="st16" d="M101.1,77.2C101.1,77.2,101.1,77.2,101.1,77.2c-0.1,0-0.2-0.1-0.3-0.1l-1.5-1.8c-0.2-0.2-0.1-0.5,0-0.6
				c0.2-0.2,0.5-0.1,0.6,0l1.2,1.4l3-2.9c0.2-0.2,0.4-0.2,0.6,0c0.2,0.2,0.2,0.4,0,0.6l-3.3,3.2C101.3,77.2,101.2,77.2,101.1,77.2z"
				/>
		</g>
	</g>
	<g>
		<path class="st17" d="M137.4,48.7h-23.3c-4.5,0-8.2-3.7-8.2-8.2v0c0-4.5,3.7-8.2,8.2-8.2h23.3c4.5,0,8.2,3.7,8.2,8.2v0
			C145.6,45,141.9,48.7,137.4,48.7z"/>
		<path class="st17" d="M110.7,46.2v9l10.4-10.4C121.1,44.8,111,46.2,110.7,46.2z"/>
		<path class="st16" d="M137,47h-22.4c-3.6,0-6.5-2.9-6.5-6.5v0c0-3.6,2.9-6.5,6.5-6.5H137c3.6,0,6.5,2.9,6.5,6.5v0
			C143.5,44.1,140.6,47,137,47z"/>
		<path class="st17" d="M127.3,37.2h-16c-0.4,0-0.7-0.3-0.7-0.7c0-0.4,0.3-0.7,0.7-0.7h16c0.4,0,0.7,0.3,0.7,0.7
			C128,36.9,127.7,37.2,127.3,37.2z"/>
		<path class="st17" d="M140.7,39.9H111c-0.2,0-0.4-0.2-0.4-0.4l0,0c0-0.2,0.2-0.4,0.4-0.4h29.7c0.2,0,0.4,0.2,0.4,0.4l0,0
			C141.1,39.7,141,39.9,140.7,39.9z"/>
		<path class="st17" d="M140.7,41.4H111c-0.2,0-0.4-0.2-0.4-0.4l0,0c0-0.2,0.2-0.4,0.4-0.4h29.7c0.2,0,0.4,0.2,0.4,0.4l0,0
			C141.1,41.2,141,41.4,140.7,41.4z"/>
		<g>
			<path class="st17" d="M134.2,46.5H134c-0.4,0-0.8-0.3-0.8-0.8v0c0-0.4,0.3-0.8,0.8-0.8h0.2c0.4,0,0.8,0.3,0.8,0.8v0
				C135,46.1,134.6,46.5,134.2,46.5z"/>
			<path class="st17" d="M137.3,46.5h-0.2c-0.4,0-0.8-0.3-0.8-0.8v0c0-0.4,0.3-0.8,0.8-0.8h0.2c0.4,0,0.8,0.3,0.8,0.8v0
				C138.1,46.1,137.7,46.5,137.3,46.5z"/>
			<path class="st17" d="M140.4,46.5h-0.2c-0.4,0-0.8-0.3-0.8-0.8v0c0-0.4,0.3-0.8,0.8-0.8h0.2c0.4,0,0.8,0.3,0.8,0.8v0
				C141.2,46.1,140.9,46.5,140.4,46.5z"/>
		</g>
	</g>
</g>
<g id="text4184">
	<path id="path866" class="st19" d="M85,110.6h-1.1v2.7h-2v-2.7h-4.6v-1.3l3.5-10.2h2.1c0,0,0,0.1,0,0.1l-3.3,9.6h2.3v-4.2h2v4.2H85
		V110.6z"/>
	<path id="path868" class="st19" d="M93.1,112c0,0.9-0.4,1.3-1.3,1.3h-4.4c-0.8,0-1.3-0.4-1.3-1.3v-11.5c0-0.9,0.4-1.3,1.3-1.3h4.4
		c0.8,0,1.3,0.4,1.3,1.3V112z M91.1,111.5V101h-2.8v10.5H91.1z"/>
	<path id="path870" class="st19" d="M102,110.6h-1.1v2.7h-2v-2.7h-4.6v-1.3l3.5-10.2h2.1c0,0,0,0.1,0,0.1l-3.3,9.6h2.3v-4.2h2v4.2
		h1.1L102,110.6z"/>
</g>
</svg>
