<?xml version="1.0" encoding="utf-8"?>
<!-- Generator: Adobe Illustrator 22.1.0, SVG Export Plug-In . SVG Version: 6.00 Build 0)  -->
<svg version="1.1" id="Layer_1" xmlns="http://www.w3.org/2000/svg" xmlns:xlink="http://www.w3.org/1999/xlink" x="0px" y="0px"
	 viewBox="0 0 348.7 233.9" style="enable-background:new 0 0 348.7 233.9;" xml:space="preserve">
<style type="text/css">
	.st0{fill:#FFFFFF;}
	.st1{fill:#00BCEB;}
	.st2{fill:#6EBE4A;}
	.st3{fill:#005073;}
</style>
<g id="Layer_x0020_1">
	<g id="_1848508970096">
		<rect y="0" class="st0" width="348.7" height="233.9"/>
		<g>
			<path class="st1" d="M175.5,179.6c-17.2,0-33.4-6.7-45.5-18.9c-12.2-12.2-18.9-28.3-18.9-45.5s6.7-33.4,18.9-45.5
				c12.2-12.2,28.3-18.9,45.5-18.9s33.4,6.7,45.5,18.9c12.2,12.2,18.9,28.3,18.9,45.5s-6.7,33.4-18.9,45.5
				C208.9,172.9,192.7,179.6,175.5,179.6z M175.5,73.4c-23.1,0-41.8,18.8-41.8,41.8c0,23.1,18.8,41.8,41.8,41.8s41.8-18.8,41.8-41.8
				C217.3,92.2,198.6,73.4,175.5,73.4z"/>
			<path class="st2" d="M218,147.3c-17.8,23.3-51.1,27.8-74.5,9.9s29.9-6.4,47.7-29.7s-6.5-72.5,16.8-54.7S235.8,124,218,147.3z"/>
			<path class="st3" d="M175.3,180c-7.6,0-15.1-1.4-22.3-4.1c-8.8-3.3-16.7-8.6-23.4-15.5c-4.3-4.5-4.2-11.6,0.3-16
				c4.5-4.3,11.6-4.2,16,0.3c8.6,8.9,20,13.4,32,12.7c12.2-0.7,23.6-6.9,31.1-16.9c7.3-9.7,10.5-22.7,8.2-34.1
				c-2.2-11.3-9.4-20.6-21.1-27.6c-5.4-3.2-7.2-10.1-4-15.5c3.2-5.4,10.1-7.2,15.5-4c21.9,12.9,29.4,30.3,31.8,42.7
				c3.5,17.8-1.1,37.3-12.4,52.1c-11.5,15.2-28.9,24.6-47.8,25.8C177.9,180,176.6,180,175.3,180z"/>
		</g>
	</g>
</g>
</svg>
