<?xml version="1.0" encoding="utf-8"?>
<!-- Generator: Adobe Illustrator 22.1.0, SVG Export Plug-In . SVG Version: 6.00 Build 0)  -->
<svg version="1.1" id="Layer_1" xmlns="http://www.w3.org/2000/svg" xmlns:xlink="http://www.w3.org/1999/xlink" x="0px" y="0px"
	 viewBox="0 0 348.7 233.9" style="enable-background:new 0 0 348.7 233.9;" xml:space="preserve">
<style type="text/css">
	.st0{fill:#00897B;}
	.st1{fill:#F5F5F5;}
</style>
<g id="Layer_x0020_1">
	<g id="_1848508970096">
		<rect y="0" class="st0" width="348.7" height="233.9"/>
		<g>
			<path class="st1" d="M230.7,111c0-30.6-24.8-55.4-55.4-55.4s-55.4,24.8-55.4,55.4c0,29,26.4,52.5,55.4,52.5v20.4
				C209,166.8,230.7,139.3,230.7,111z"/>
			<path class="st0" d="M195,105.5v-9.1c0-1.9-0.7-3.7-2.1-5.2c-1.4-1.4-3.3-2.1-5.2-2.1h-36.4c-1.9,0-3.7,0.7-5.2,2.1
				c-1.4,1.4-2.1,3.3-2.1,5.2v29.2c0,1.9,0.7,3.7,2.1,5.2c1.4,1.4,3.3,2.1,5.2,2.1h36.5c1.9,0,3.7-0.7,5.2-2.1
				c1.4-1.4,2.1-3.3,2.1-5.2v-9.1l14.6,14.6V90.9L195,105.5z"/>
		</g>
	</g>
</g>
</svg>
