<?xml version="1.0" encoding="utf-8"?>
<!-- Generator: Adobe Illustrator 22.1.0, SVG Export Plug-In . SVG Version: 6.00 Build 0)  -->
<svg version="1.1" id="Layer_1" xmlns="http://www.w3.org/2000/svg" xmlns:xlink="http://www.w3.org/1999/xlink" x="0px" y="0px"
	 viewBox="0 0 348.7 233.9" style="enable-background:new 0 0 348.7 233.9;" xml:space="preserve">
<style type="text/css">
	.st0{fill:url(#SVGID_1_);}
	.st1{fill:#FFFFFF;}
	.st2{fill:url(#SVGID_2_);}
</style>
<g id="Layer_x0020_1">
	<g id="_1848508970096">
		<linearGradient id="SVGID_1_" gradientUnits="userSpaceOnUse" x1="174.35" y1="-1.464844e-05" x2="174.35" y2="233.9">
			<stop  offset="0" style="stop-color:#E4B822"/>
			<stop  offset="0.12" style="stop-color:#E4B222"/>
			<stop  offset="0.29" style="stop-color:#E2A024"/>
			<stop  offset="0.48" style="stop-color:#E08426"/>
			<stop  offset="0.5" style="stop-color:#E08026"/>
			<stop  offset="1" style="stop-color:#C95528"/>
		</linearGradient>
		<rect y="0" class="st0" width="348.7" height="233.9"/>
		<g>
			<path class="st1" d="M229.5,123.8c-0.6-2.2-1.4-4.2-2.5-6.3c7.7-14.4,2.2-32.5-12.2-40.1c-4-2.2-8.3-3.3-12.9-3.4
				c-8.7-14-27-18.2-40.8-9.5c-3.9,2.4-7.1,5.6-9.5,9.5c-16.4,0.6-29.2,14.3-28.6,30.6c0.1,4.5,1.4,8.9,3.4,12.9
				c-7.7,14.4-2.2,32.5,12.2,40.1c4,2.2,8.3,3.3,12.9,3.4c8.7,14,27,18.2,40.8,9.5c3.9-2.4,7.1-5.6,9.5-9.5
				c16.4-0.6,29.2-14.3,28.6-30.6C230.5,128.2,230.1,125.9,229.5,123.8z"/>
			<linearGradient id="SVGID_2_" gradientUnits="userSpaceOnUse" x1="176.6998" y1="70.1636" x2="176.6998" y2="165.1212">
				<stop  offset="0" style="stop-color:#E4B822"/>
				<stop  offset="0.12" style="stop-color:#E4B222"/>
				<stop  offset="0.29" style="stop-color:#E2A024"/>
				<stop  offset="0.48" style="stop-color:#E08426"/>
				<stop  offset="0.5" style="stop-color:#E08026"/>
				<stop  offset="1" style="stop-color:#C95528"/>
			</linearGradient>
			<path class="st2" d="M219.8,126.4c-0.9-3.3-2.7-6.4-5.1-8.8c7.7-7.7,7.7-20.1,0-27.8c-4.9-4.9-12.2-6.9-19-5
				c-2.7-10.5-13.5-16.7-24-14c-6.7,1.8-12.1,7.1-14,14c-10.5-2.9-21.3,3.4-24,13.8c-1.8,6.7,0.1,14.1,5,19
				c-7.7,7.7-7.7,20.1,0,27.8c4.9,4.9,12.2,6.9,19,5c2.7,10.5,13.4,16.8,23.9,14.1c6.9-1.8,12.4-7.2,14.1-14.1
				c10.4,2.9,21.2-3.2,24.1-13.6C220.6,133.4,220.6,129.8,219.8,126.4L219.8,126.4z M193.3,123.8c1.1,0,2.3-0.2,3.3-0.8
				c4.7-2.3,10.3-0.3,12.6,4.2c2.3,4.7,0.3,10.3-4.2,12.6c-4.7,2.3-10.3,0.3-12.6-4.2c-0.6-1.1-0.9-2.3-0.9-3.5
				c-0.1-1.1-0.5-2.3-1-3.3c-1.7-3-5.6-4-8.6-2.3s-4,5.6-2.3,8.6c0.6,1,1.4,1.8,2.3,2.5c4.3,2.9,5.5,8.7,2.6,13
				c-2.9,4.3-8.7,5.5-13,2.6s-5.5-8.7-2.6-13c0.7-1,1.6-1.9,2.6-2.6c0.9-0.7,1.7-1.5,2.3-2.5c1.7-3,0.7-6.9-2.3-8.6
				s-6.9-0.7-8.6,2.3c-0.6,1-0.9,2.2-1,3.3c-0.3,5.1-4.9,9-10.1,8.7c-5.1-0.3-9-4.9-8.7-10.1s4.9-9,10.1-8.7c1.3,0.1,2.4,0.5,3.5,1
				c1,0.5,2.2,0.8,3.3,0.8c3.4,0,6.3-2.9,6.3-6.3s-2.9-6.3-6.3-6.3c-1.1,0-2.3,0.2-3.3,0.8c-4.7,2.3-10.3,0.3-12.6-4.2
				c-2.3-4.6-0.3-10.3,4.2-12.6c4.6-2.3,10.3-0.3,12.6,4.2c0.6,1.1,0.9,2.3,0.9,3.5c0.1,1.1,0.5,2.3,1,3.3c1.7,3,5.6,4,8.6,2.3
				c3-1.7,4-5.6,2.3-8.6l0,0c-0.6-1-1.4-1.8-2.3-2.5c-4.3-2.9-5.5-8.7-2.6-13c2.9-4.3,8.7-5.5,13-2.6s5.5,8.7,2.6,13
				c-0.7,1-1.6,1.9-2.6,2.6c-0.9,0.7-1.7,1.5-2.3,2.5c-1.7,3.1-0.7,7,2.4,8.7c3.1,1.7,7,0.7,8.7-2.4c0.6-1,0.9-2.2,1-3.3
				c0.5-5.1,4.9-9,10.2-8.6c5.1,0.5,9,4.9,8.6,10.2c-0.5,5.1-4.9,9-10.2,8.6c-1.3-0.1-2.5-0.5-3.5-1c-1-0.5-2.2-0.8-3.3-0.8
				c-3.4,0-6.3,2.9-6.3,6.3S189.9,123.8,193.3,123.8L193.3,123.8z"/>
		</g>
	</g>
</g>
</svg>
