<?xml version="1.0" encoding="UTF-8"?>
<!-- Generated by Pixelmator Pro 3.3.5 -->
<svg width="264" height="197" viewBox="0 0 264 197" xmlns="http://www.w3.org/2000/svg">
    <g id="g6321">
        <g id="g6323">
            <path id="path6325" fill="#ffffff" stroke="none" d="M 281 167.733505 C 281 193.234726 260.234711 214 234.733505 214 L -17 214 L -17 30.755508 C -17 5.254288 3.76528 -15.511002 29.266502 -15.511002 L 281 -15.511002 L 281 167.733505 Z"/>
            <g id="g6327">
                <linearGradient id="linearGradient1" x1="182.789868" y1="112.01683" x2="264.64394" y2="112.01683" gradientUnits="userSpaceOnUse">
                    <stop offset="1e-05" stop-color="#007940" stop-opacity="1"/>
                    <stop offset="0.2285" stop-color="#00873f" stop-opacity="1"/>
                    <stop offset="0.7433" stop-color="#40a737" stop-opacity="1"/>
                    <stop offset="1" stop-color="#5cb531" stop-opacity="1"/>
                </linearGradient>
                <path id="path6338" fill="url(#linearGradient1)" stroke="none" d="M 199.031784 120.738388 L 218.1577 120.738388 C 218.704163 120.738388 219.979218 120.556244 220.525665 120.556244 C 224.168701 119.827629 227.265274 116.548897 227.265274 111.99511 C 227.265274 107.623482 224.168701 104.344749 220.525665 103.43399 C 219.979218 103.251839 218.886292 103.251839 218.1577 103.251839 L 199.031784 103.251839 L 199.031784 120.738388 Z"/>
                <linearGradient id="linearGradient2" x1="182.787409" y1="99.256027" x2="264.647834" y2="99.256027" gradientUnits="userSpaceOnUse">
                    <stop offset="1e-05" stop-color="#007940" stop-opacity="1"/>
                    <stop offset="0.2285" stop-color="#00873f" stop-opacity="1"/>
                    <stop offset="0.7433" stop-color="#40a737" stop-opacity="1"/>
                    <stop offset="1" stop-color="#5cb531" stop-opacity="1"/>
                </linearGradient>
                <path id="path6349" fill="url(#linearGradient2)" stroke="none" d="M 215.971878 -0.028107 C 197.756729 -0.028107 182.820282 14.726166 182.820282 33.123474 L 182.820282 67.550125 L 229.633255 67.550125 C 230.726151 67.550125 232.001221 67.550125 232.911987 67.732285 C 243.476746 68.278732 251.309265 73.743286 251.309265 83.215164 C 251.309265 90.68338 246.026886 97.058685 236.190689 98.33374 L 236.190689 98.698051 C 246.937653 99.426659 255.13446 105.437653 255.13446 114.727379 C 255.13446 124.74572 246.026886 131.303192 234.004883 131.303192 L 182.638138 131.303192 L 182.638138 198.69928 L 231.272598 198.69928 C 249.487762 198.69928 264.424194 183.944977 264.424194 165.547668 L 264.424194 -0.028107 L 215.971878 -0.028107 Z"/>
                <linearGradient id="linearGradient3" x1="182.787819" y1="85.378192" x2="264.64519" y2="85.378192" gradientUnits="userSpaceOnUse">
                    <stop offset="1e-05" stop-color="#007940" stop-opacity="1"/>
                    <stop offset="0.2285" stop-color="#00873f" stop-opacity="1"/>
                    <stop offset="0.7433" stop-color="#40a737" stop-opacity="1"/>
                    <stop offset="1" stop-color="#5cb531" stop-opacity="1"/>
                </linearGradient>
                <path id="path6360" fill="url(#linearGradient3)" stroke="none" d="M 224.897293 85.400986 C 224.897293 81.029343 221.80072 78.114914 218.1577 77.568466 C 217.793396 77.568466 216.882645 77.386307 216.336182 77.386307 L 199.031784 77.386307 L 199.031784 93.415649 L 216.336182 93.415649 C 216.882645 93.415649 217.975525 93.415649 218.1577 93.233505 C 221.80072 92.687042 224.897293 89.772621 224.897293 85.400986 Z"/>
            </g>
            <linearGradient id="linearGradient4" x1="-0.462777" y1="99.256027" x2="82.658528" y2="99.256027" gradientUnits="userSpaceOnUse">
                <stop offset="1e-05" stop-color="#1f286f" stop-opacity="1"/>
                <stop offset="0.4751" stop-color="#004e94" stop-opacity="1"/>
                <stop offset="0.8261" stop-color="#0066b1" stop-opacity="1"/>
                <stop offset="1" stop-color="#006fbc" stop-opacity="1"/>
            </linearGradient>
            <path id="path6371" fill="url(#linearGradient4)" stroke="none" d="M 32.727383 -0.028107 C 14.512226 -0.028107 -0.424206 14.726166 -0.424206 33.123474 L -0.424206 114.909546 C 8.865526 119.463333 18.519558 122.377754 28.173595 122.377754 C 39.649143 122.377754 45.8423 115.455994 45.8423 105.984116 L 45.8423 67.367981 L 74.257942 67.367981 L 74.257942 105.801964 C 74.257942 120.738388 64.968216 132.942535 33.455986 132.942535 C 14.330074 132.942535 -0.606358 128.753052 -0.606358 128.753052 L -0.606358 198.517105 L 48.028114 198.517105 C 66.243271 198.517105 81.17971 183.762833 81.17971 165.365524 L 81.17971 -0.028107 L 32.727383 -0.028107 Z"/>
            <linearGradient id="linearGradient5" x1="90.727071" y1="99.256027" x2="171.457148" y2="99.256027" gradientUnits="userSpaceOnUse">
                <stop offset="1e-05" stop-color="#6c2c2f" stop-opacity="1"/>
                <stop offset="0.1735" stop-color="#882730" stop-opacity="1"/>
                <stop offset="0.5731" stop-color="#be1833" stop-opacity="1"/>
                <stop offset="0.8585" stop-color="#dc0436" stop-opacity="1"/>
                <stop offset="1" stop-color="#e60039" stop-opacity="1"/>
            </linearGradient>
            <path id="path6384" fill="url(#linearGradient5)" stroke="none" d="M 124.349625 -0.028107 C 106.134468 -0.028107 91.198044 14.726166 91.198044 33.123474 L 91.198044 76.475555 C 99.577019 69.371643 114.149139 64.817856 137.646698 65.910767 C 150.215149 66.457214 163.694366 69.918091 163.694366 69.918091 L 163.694366 83.943771 C 156.954773 80.482895 148.940094 77.386307 138.557465 76.6577 C 120.706604 75.382645 109.959648 84.125931 109.959648 99.426659 C 109.959648 114.909546 120.706604 123.652809 138.557465 122.19561 C 148.940094 121.466995 156.954773 118.188263 163.694366 114.909546 L 163.694366 128.935211 C 163.694366 128.935211 150.397308 132.396088 137.646698 132.942535 C 114.149139 134.035461 99.577019 129.481674 91.198044 122.377754 L 91.198044 198.881424 L 139.83252 198.881424 C 158.047668 198.881424 172.9841 184.127151 172.9841 165.729828 L 172.9841 -0.028107 L 124.349625 -0.028107 Z"/>
        </g>
        <g id="g6386"/>
    </g>
</svg>
