<svg width="409" height="189" viewBox="0 0 409 189" fill="none" xmlns="http://www.w3.org/2000/svg">
<path d="M206.2 128.2H218.5V62.4H206.2V128.2Z" fill="black"/>
<path d="M288.2 120C281.4 126.6 272.6 129.8 263.1 129.8C238.7 129.8 228.3 113 228.3 95.8001C228.2 78.6001 239.4 61.2001 263.1 61.2001C272 61.2001 280.5 64.6001 287.3 71.2001L279 79.2001C274.7 75.0001 268.8 73.0001 263.1 73.0001C247.3 73.0001 240.4 84.9001 240.5 95.8001C240.6 106.7 246.9 118.1 263.1 118.1C268.9 118.1 275.3 115.7 279.7 111.4L288.2 120Z" fill="black"/>
<path d="M336.7 78.3001C334.5 74.5001 328.3 71 321.1 71C311.9 71 307.4 74.8 307.4 79.7C307.4 85.5 314.2 87 322.1 88C335.9 89.7 348.6 93.3 348.6 109C348.6 123.7 335.6 130 321 130C307.6 130 297.2 125.9 292.3 113.9L302.7 108.5C305.6 115.8 313.2 118.9 321.2 118.9C329 118.9 336.3 116.2 336.3 109C336.3 102.8 329.8 100.3 321.1 99.4001C307.6 97.7001 295.3 94.2 295.3 79.5C295.3 66 308.6 60.4 320.8 60.3C331 60.3 341.6 63.2001 346.6 73.3001L336.7 78.3001Z" fill="black"/>
<path d="M375.3 73.7H354.4V62.4C373.3 62.4 389.5 62.4 408.5 62.4V73.7H387.6V128.2H375.2V73.7H375.3Z" fill="black"/>
<path d="M219 39V49.9C219 53.3 216.7 55.4 212.4 55.4C208.2 55.4 205.9 53.3 205.9 49.9V39C205.9 38.7 206.2 38.5 206.9 38.5H207C207.6 38.5 207.9 38.7 207.9 39V49.9C207.9 52 209.8 53.5 212.3 53.5C214.9 53.5 216.8 52 216.8 49.9V39C216.8 38.7 217.1 38.5 217.7 38.5H217.8C218.7 38.4 219 38.7 219 39Z" fill="black"/>
<path d="M250.7 39.7999C250.7 40.1999 250.2 41.2 249.9 41.2C249.6 41.2 248.5 40.0999 246.2 40.0999C242 40.0999 240.6 42.5 240.6 46.7C240.6 50.4 241.8 53.5 245.9 53.5C247.1 53.5 248.3 53.3999 249 53.0999V48.2999H246.2C245.9 48.2999 245.8 48.0999 245.8 47.5999V47.2C245.8 46.7 245.9 46.5 246.2 46.5H250.4C250.9 46.5 251.1 46.7 251.1 47.2V53.5C251.1 54.9 248.5 55.2 245.8 55.2C241.1 55.2 238.5 52.4999 238.5 46.7999C238.5 40.8999 241.2 38.2 246.2 38.2C248.5 38.4 250.7 39.1999 250.7 39.7999Z" fill="black"/>
<path d="M287.1 39V54.7C287.1 55.1 286.8 55.3 286.2 55.3H286.1C285.5 55.3 285.2 55.1 285.2 54.7V41.9L285 42L280.2 50.2L279.7 50.6H278.8L278.3 50.2L273.5 41.8L273.4 41.7V54.6C273.4 55 273.1 55.2 272.5 55.2H272.4C271.8 55.2 271.5 55 271.5 54.6V39C271.5 38.7 271.8 38.5 272.4 38.5H273.3C273.9 38.5 274.2 38.7 274.3 38.9L278.8 46.7L279.4 48.2L280 46.8L284.5 38.9C284.6 38.7 284.9 38.5 285.5 38.5H286.3C286.8 38.4 287.1 38.7 287.1 39Z" fill="black"/>
<path d="M174.9 0L87.7998 46.8L174.9 187.2V0Z" fill="#307ABD"/>
<path d="M87.8002 46.8L0.700195 93.6L174.9 187.2L87.8002 46.8Z" fill="#306BA4"/>
<path d="M0 188.1L59.8 93.6L98.9 114.1L0 188.1Z" fill="#3AB778"/>
<path d="M144.4 138L59.7998 93.6H137.8L144.4 138Z" fill="#8FC74A"/>
<path d="M199.2 23.6L59.7998 93.6H137.8L199.2 23.6Z" fill="#D7DF36"/>
</svg>
