<?xml version="1.0" encoding="utf-8"?>
<!-- Generator: Adobe Illustrator 22.1.0, SVG Export Plug-In . SVG Version: 6.00 Build 0)  -->
<svg version="1.1" id="Layer_1" xmlns="http://www.w3.org/2000/svg" xmlns:xlink="http://www.w3.org/1999/xlink" x="0px" y="0px"
	 viewBox="0 0 348.7 233.9" style="enable-background:new 0 0 348.7 233.9;" xml:space="preserve">
<style type="text/css">
	.st0{fill:#FFFFFF;}
	.st1{fill:#5059C9;}
	.st2{fill:#7B83EB;}
	.st3{opacity:0.1;enable-background:new    ;}
	.st4{opacity:0.2;enable-background:new    ;}
	.st5{fill:url(#SVGID_1_);}
</style>
<g id="Layer_x0020_1">
	<g id="_1848508970096">
		<rect y="0" class="st0" width="348.7" height="233.9"/>
		<g>
			<path class="st1" d="M201.5,101.8h34.9c3.3,0,6,2.7,6,6l0,0v31.8c0,12.1-9.8,21.9-21.9,21.9l0,0h-0.1c-12.1,0-21.9-9.8-21.9-21.9
				c0,0,0,0,0,0v-34.6C198.4,103.2,199.8,101.8,201.5,101.8L201.5,101.8z"/>
			<circle class="st1" cx="225.1" cy="81.4" r="14.1"/>
			<circle class="st2" cx="181.1" cy="75.1" r="20.4"/>
			<path class="st2" d="M208.3,101.8h-57.5c-3.3,0.1-5.8,2.8-5.8,6V144c-0.5,19.5,15,35.7,34.5,36.2c19.5-0.5,35-16.7,34.5-36.2
				v-36.2C214.2,104.6,211.6,101.9,208.3,101.8z"/>
			<path class="st3" d="M182.7,101.8v50.8c0,2.3-1.4,4.4-3.6,5.3c-0.7,0.3-1.4,0.4-2.2,0.4h-29.2c-0.4-1-0.8-2.1-1.1-3.1
				c-1.1-3.6-1.7-7.3-1.7-11.1v-36.2c-0.1-3.2,2.5-5.9,5.7-6H182.7z"/>
			<path class="st4" d="M179.6,101.8v53.9c0,0.7-0.1,1.5-0.4,2.2c-0.9,2.2-3,3.6-5.3,3.6h-24.5c-0.5-1-1-2.1-1.5-3.1
				s-0.8-2.1-1.1-3.1c-1.1-3.6-1.7-7.3-1.7-11.1v-36.2c-0.1-3.2,2.5-5.9,5.7-6H179.6z"/>
			<path class="st4" d="M179.6,101.8v47.6c0,3.2-2.6,5.7-5.7,5.7h-27.1c-1.1-3.6-1.7-7.3-1.7-11.1v-36.2c-0.1-3.2,2.5-5.9,5.7-6
				H179.6z"/>
			<path class="st4" d="M176.4,101.8v47.6c0,3.2-2.6,5.7-5.7,5.7h-24c-1.1-3.6-1.7-7.3-1.7-11.1v-36.2c-0.1-3.2,2.5-5.9,5.7-6H176.4
				z"/>
			<path class="st3" d="M182.7,85.6v9.9c-0.5,0-1,0.1-1.6,0.1c-0.5,0-1,0-1.6-0.1c-1.1-0.1-2.1-0.2-3.1-0.5c-6.4-1.5-11.6-6-14.1-12
				c-0.4-1-0.8-2.1-1-3.1H177C180.1,79.8,182.7,82.4,182.7,85.6z"/>
			<path class="st4" d="M179.6,88.7v6.7c-1.1-0.1-2.1-0.2-3.1-0.5c-6.4-1.5-11.6-6-14.1-12h11.5C177,83,179.5,85.5,179.6,88.7z"/>
			<path class="st4" d="M179.6,88.7v6.7c-1.1-0.1-2.1-0.2-3.1-0.5c-6.4-1.5-11.6-6-14.1-12h11.5C177,83,179.5,85.5,179.6,88.7z"/>
			<path class="st4" d="M176.4,88.7v6.2c-6.4-1.5-11.6-6-14.1-12h8.4C173.8,83,176.4,85.5,176.4,88.7z"/>
			
				<linearGradient id="SVGID_1_" gradientUnits="userSpaceOnUse" x1="119.3639" y1="-1154.9913" x2="164.4259" y2="-1076.9458" gradientTransform="matrix(1 0 0 1 0 1233.4432)">
				<stop  offset="0" style="stop-color:#5A62C3"/>
				<stop  offset="0.5" style="stop-color:#4D55BD"/>
				<stop  offset="1" style="stop-color:#3940AB"/>
			</linearGradient>
			<path class="st5" d="M113.1,82.9h57.5c3.2,0,5.8,2.6,5.8,5.8v57.5c0,3.2-2.6,5.8-5.8,5.8h-57.5c-3.2,0-5.8-2.6-5.8-5.8V88.7
				C107.4,85.5,109.9,82.9,113.1,82.9z"/>
			<path class="st0" d="M157,104.9h-11.5v31.3h-7.3v-31.3h-11.5v-6.1H157V104.9z"/>
		</g>
	</g>
</g>
</svg>
