<?xml version="1.0" encoding="utf-8"?>
<!-- Generator: Adobe Illustrator 25.2.1, SVG Export Plug-In . SVG Version: 6.00 Build 0)  -->
<svg version="1.1" id="Layer_1" xmlns="http://www.w3.org/2000/svg" xmlns:xlink="http://www.w3.org/1999/xlink" x="0px" y="0px"
	 viewBox="0 0 94.9578 26.9316" style="enable-background:new 0 0 94.9578 26.9316;" xml:space="preserve">
<style type="text/css">
	.st0{fill:#F58220;}
</style>
<g>
	<g>
		<path class="st0" d="M5.1489,20.7275c-1.5845,0-3.5977-0.2979-5.1489-1.0566l0.3628-2.6406
			c1.3203,0.8252,3.0034,1.3867,4.7197,1.3867c2.7065,0,3.8618-1.5518,3.8618-3.0371c0-3.7949-8.7793-4.3232-8.7793-9.9346
			C0.165,2.4424,2.145,0,6.7661,0c1.8149,0,3.3662,0.3301,4.7856,0.957l-0.1323,2.6406C9.8682,2.707,8.1851,2.2773,6.7661,2.2773
			c-2.8384,0-3.6968,1.5508-3.6968,3.0371c0,3.8613,8.7793,4.5869,8.7793,9.9004C11.8486,18.252,9.4062,20.7275,5.1489,20.7275z"/>
		<path class="st0" d="M26.0054,19.3408c-1.4854,1.0234-3.2676,1.3867-4.9507,1.3867c-3.8618,0-6.6343-2.7725-6.6343-7.9873
			c0-5.4463,3.6968-7.7559,6.7002-7.7559c2.7393,0,4.6533,0.6924,4.8848,2.6729c0.0327,0.2969,0.0327,0.7256,0.0327,1.0889h-2.3765
			c0-1.2871-0.6929-1.584-2.4092-1.584c-1.0229,0-4.4739,0.7505-4.0596,5.4785c0,4.1924,2.4092,5.9082,4.5547,5.9082
			c1.2212,0,3.0693-0.6934,4.0596-1.5186L26.0054,19.3408z"/>
		<path class="st0" d="M34.4194,20.7275c-4.1587,0-6.9312-3.1025-6.9312-7.8555c0-4.3896,2.5415-7.8877,7.2939-7.8877
			c4.1919,0,6.9644,3.0029,6.9644,7.8877C41.7466,17.4922,38.9409,20.7275,34.4194,20.7275z M34.4521,7.1621
			c-1.188,0-4.2246,0.4187-4.2246,5.5449c0,4.7529,2.5415,5.8418,4.522,5.8418c3.6373,0,4.2573-2.9043,4.2573-5.4463
			C39.0068,10.3301,38.1157,7.1621,34.4521,7.1621z"/>
		<path class="st0" d="M51.019,20.7275c-1.2217,0-2.3438-0.2314-3.3008-0.7266v6.9307h-2.541V9.5391
			c0-1.1562-0.0664-2.1787-0.1328-2.9375l-0.1318-1.2217h2.3428l0.3965,2.2119c1.584-1.8486,3.0039-2.6074,5.1152-2.6074
			c3.0371,0,5.4131,1.9805,5.4131,7.2607C58.1802,17.3604,55.2437,20.7275,51.019,20.7275z M52.1733,7.2617
			c-0.7588,0-3.1691,0.2361-4.4551,3.0684v7.3604c0.2969,0.165,0.5938,0.3301,0.8906,0.4297
			c0.5283,0.2305,1.2539,0.4287,2.0469,0.4287c3.2676,0,4.752-2.4092,4.752-6.0068C55.4077,10.4297,55.0122,7.2617,52.1733,7.2617z"
			/>
		<path class="st0" d="M73.854,20.3311h-2.3096l-0.3965-2.1787c-1.5186,2.0469-2.6406,2.6074-4.8848,2.6074
			c-2.6406,0-4.7852-1.0889-4.7852-4.917V5.3799h2.541v8.6807c0,2.4424,0.1982,4.4883,2.4756,4.4883
			c2.9151,0.2301,3.8945-1.8486,4.5547-3.2344V5.3799h2.541v10.8252c0,1.1885,0.0332,2.1787,0.1318,2.9375L73.854,20.3311z"/>
		<path class="st0" d="M82.103,20.7598c-1.6836,0-3.499-0.4287-4.6543-1.2207l0.2979-2.377
			c1.0889,0.6934,2.2109,1.5186,4.1582,1.5186c2.1123,0,3.1025-0.957,3.1025-2.1123c0-3.0361-7.459-2.8711-7.459-7.4922
			c0-2.2441,1.749-4.0918,5.3467-4.0918c1.9805,0,3.2676,0.5605,4.291,1.1211l-0.2646,2.377
			c-1.2871-1.1885-2.9375-1.4521-3.9932-1.4521c-1.6836,0-2.8389,0.6602-2.8389,1.8486c0,3.0029,7.459,2.7393,7.459,7.4912
			C87.5483,18.582,85.8979,20.7598,82.103,20.7598z"/>
	</g>
	<path class="st0" d="M89.7097,2.6074C89.7097,1.1543,90.9304,0,92.3504,0c1.4521,0,2.6074,1.1875,2.6074,2.6074
		c0,1.4512-1.1553,2.6074-2.6074,2.6074C90.9304,5.2148,89.7097,4.0586,89.7097,2.6074z M90.3035,2.6074
		c0,1.1211,0.9248,2.0127,2.0469,2.0127s2.0127-0.8916,2.0127-2.0127c0-1.123-0.8906-2.0137-2.0127-2.0137
		S90.3035,1.4844,90.3035,2.6074z M92.5476,3.498l-0.4287-0.627h-0.1982v1.1543h-0.5283V1.1543h0.8584
		c0.5615,0,1.0898,0.1982,1.0898,0.8252c0,0.4619-0.2646,0.7266-0.6279,0.8252c0.2979,0.4297,0.5947,0.8252,0.957,1.2207h-0.7516
		C92.9181,4.0254,92.7791,3.8281,92.5476,3.498z M91.9207,2.4414h0.4297c0.2637,0,0.4287-0.1318,0.4287-0.4287
		c0-0.2646-0.165-0.4287-0.4287-0.4287h-0.4297V2.4414z"/>
</g>
</svg>
