<?xml version="1.0" encoding="utf-8"?>
<!-- Generator: Adobe Illustrator 22.1.0, SVG Export Plug-In . SVG Version: 6.00 Build 0)  -->
<svg version="1.1" id="Layer_1" xmlns="http://www.w3.org/2000/svg" xmlns:xlink="http://www.w3.org/1999/xlink" x="0px" y="0px"
	 viewBox="0 0 348.7 233.9" style="enable-background:new 0 0 348.7 233.9;" xml:space="preserve">
<style type="text/css">
	.st0{fill:#FFFFFF;}
	.st1{fill:#ED6C47;}
	.st2{fill:#FF8F6B;}
	.st3{fill:#D35230;}
	.st4{opacity:0.1;enable-background:new    ;}
	.st5{opacity:0.2;enable-background:new    ;}
	.st6{fill:url(#SVGID_1_);}
</style>
<g id="Layer_x0020_1">
	<g id="_1848508970096">
		<rect y="0" class="st0" width="348.7" height="233.9"/>
		<g>
			<path class="st1" d="M188.4,123.2L179,54.6h-0.7c-34,0.1-61.5,27.6-61.6,61.6v0.7L188.4,123.2z"/>
			<path class="st2" d="M179.7,54.6H179v62.3l31.2,12.5l31.2-12.5v-0.7C241.2,82.3,213.7,54.7,179.7,54.6z"/>
			<path class="st3" d="M241.3,116.9v0.7c-0.1,34-27.6,61.5-61.6,61.6h-1.4c-34-0.1-61.5-27.6-61.6-61.6v-0.7H241.3z"/>
			<path class="st4" d="M182.1,85.3v66.5c0,2.3-1.4,4.4-3.6,5.3c-0.7,0.3-1.4,0.4-2.1,0.4h-45c-0.9-1-1.7-2.1-2.5-3.1
				c-7.9-10.6-12.2-23.5-12.2-36.7v-1.4c0-11.9,3.5-23.6,10-33.6c0.7-1.1,1.4-2.1,2.2-3.1h47.5C179.6,79.6,182.1,82.1,182.1,85.3z"
				/>
			<path class="st5" d="M179,88.4v66.5c0,0.7-0.1,1.5-0.4,2.1c-0.9,2.1-3,3.5-5.3,3.6h-39.1c-1-1-1.9-2-2.8-3.1
				c-0.9-1-1.7-2.1-2.5-3.1c-7.9-10.6-12.2-23.5-12.2-36.7v-1.4c0-11.9,3.5-23.6,10-33.6h46.6C176.5,82.7,179,85.2,179,88.4z"/>
			<path class="st5" d="M179,88.4v60.2c0,3.1-2.6,5.7-5.7,5.7h-44.4c-7.9-10.6-12.2-23.5-12.2-36.7v-1.4c0-11.9,3.5-23.6,10-33.6
				h46.6C176.5,82.7,179,85.2,179,88.4z"/>
			<path class="st5" d="M175.9,88.4v60.2c0,3.1-2.6,5.7-5.7,5.7h-41.3c-7.9-10.6-12.2-23.5-12.2-36.7v-1.4c0-11.9,3.5-23.6,10-33.6
				h43.5C173.3,82.7,175.9,85.2,175.9,88.4z"/>
			
				<linearGradient id="SVGID_1_" gradientUnits="userSpaceOnUse" x1="119.2813" y1="-867.8874" x2="164.0022" y2="-790.4327" gradientTransform="matrix(1 0 0 1 0 946.11)">
				<stop  offset="0" style="stop-color:#CA4C28"/>
				<stop  offset="0.5" style="stop-color:#C5401E"/>
				<stop  offset="1" style="stop-color:#B62F14"/>
			</linearGradient>
			<path class="st6" d="M113.1,82.7h57.1c3.2,0,5.7,2.6,5.7,5.7v57.1c0,3.2-2.6,5.7-5.7,5.7h-57.1c-3.2,0-5.7-2.6-5.7-5.7V88.4
				C107.4,85.2,109.9,82.7,113.1,82.7z"/>
			<path class="st0" d="M142.3,97.9c3.7-0.3,7.4,0.8,10.4,3c2.5,2.2,3.8,5.5,3.6,8.8c0,2.3-0.6,4.6-1.8,6.6c-1.2,2-3,3.5-5.1,4.5
				c-2.4,1.1-5,1.7-7.6,1.6h-7.2v13.4h-7.4v-38H142.3z M134.6,116.7h6.4c2,0.1,4-0.4,5.6-1.7c1.3-1.3,2-3.1,1.9-4.9
				c0-4.2-2.4-6.3-7.3-6.3h-6.6L134.6,116.7L134.6,116.7z"/>
		</g>
	</g>
</g>
</svg>
