<?xml version="1.0" encoding="utf-8"?>
<!-- Generator: Adobe Illustrator 22.1.0, SVG Export Plug-In . SVG Version: 6.00 Build 0)  -->
<svg version="1.1" id="Layer_1" xmlns="http://www.w3.org/2000/svg" xmlns:xlink="http://www.w3.org/1999/xlink" x="0px" y="0px"
	 viewBox="0 0 348.7 233.9" style="enable-background:new 0 0 348.7 233.9;" xml:space="preserve">
<style type="text/css">
	.st0{fill:#00AFF0;}
	.st1{fill:#FFFFFF;}
</style>
<g id="Layer_x0020_1">
	<g id="_1848508970096">
		<rect y="0" class="st0" width="348.7" height="233.9"/>
		<g>
			<path id="path6" class="st1" d="M128.1,61.3c10.6-7.6,25.5-8.3,36.8-1.8c12.7-2.2,26.1-0.1,37.4,6.1c12.6,6.8,22.6,18.4,27.2,32
				c3.2,9.2,3.9,19.2,2.3,28.8c4.1,7.1,5.5,15.7,3.8,23.8c-1.7,8.9-7.2,17-14.8,21.9c-10.5,7.1-24.9,7.5-35.9,1.1
				c-12.2,2.1-25,0.3-36-5.3c-12.8-6.4-23-17.8-28-31.2c-3.6-9.6-4.5-20.2-2.8-30.3c-4.2-7.3-5.5-16.1-3.7-24.2
				C116.1,73.8,121.1,66.2,128.1,61.3z"/>
			<path id="path8" class="st0" d="M133.8,68.1c6.4-4.3,14.8-5.4,22.1-2.9c2.6,0.8,4.9,2.3,7.3,3.6c9.2-2,18.9-1.7,27.8,1.5
				c14.1,4.9,25.6,16.6,30.3,30.8c2.9,8.7,3.1,18.1,1.2,27c2.3,3.7,4.3,7.8,4.7,12.2c1.1,8.3-2.3,17-8.6,22.5
				c-6.2,5.5-15.2,7.6-23.2,5.4c-3.2-0.8-6.1-2.4-8.9-4.1c-9.7,2.1-19.9,1.6-29.2-2c-13.6-5.2-24.6-16.8-29-30.7
				c-2.8-8.5-3-17.8-1.1-26.6c-2.9-4.6-5-9.9-4.9-15.4C122.2,81,126.8,72.7,133.8,68.1z"/>
			<path id="path10" class="st1" d="M167.3,81.5c8.3-1.3,17.1,0,24.5,4c3.2,1.8,6.4,4.2,7.9,7.7c1,2.3,1.1,5.3-0.7,7.2
				c-2,2-5.2,2.6-7.8,1.8c-3.1-1.3-4.6-4.5-7.2-6.4c-3.3-2.7-7.6-3.4-11.7-3.3c-3,0.1-6.2,0.8-8.4,3c-2,2.2-2.8,5.9-0.8,8.3
				c1.9,2.1,4.7,2.9,7.4,3.7c5,1.3,10.1,2.3,15.2,3.5c5.2,1.2,10.5,3.5,14,7.8c6,7.7,4.6,20-2.8,26.4c-5.9,5.3-14.2,6.7-21.9,6.8
				c-8.2-0.1-17-1.8-23.3-7.4c-3.2-2.9-5.8-7.2-4.9-11.6c1-4.4,7.1-6,10.5-3.4c2.6,2.1,4,5.3,6.5,7.5c3,2.8,7.2,3.9,11.2,3.8
				c3.9,0.1,8.1-1.1,10.8-4.1c1.8-2,2.8-5.1,1.6-7.7c-1-2.4-3.5-3.8-5.9-4.4c-4.4-1.2-8.9-2.2-13.3-3.4c-4.9-1.2-9.9-2.3-14.1-5.2
				c-3.3-2.2-5.7-5.6-6.5-9.4c-1.3-6-0.4-13,4-17.6C155.5,84.4,161.5,82.4,167.3,81.5z"/>
		</g>
	</g>
</g>
</svg>
