<?xml version="1.0" encoding="utf-8"?>
<!-- Generator: Adobe Illustrator 22.1.0, SVG Export Plug-In . SVG Version: 6.00 Build 0)  -->
<svg version="1.1" id="Layer_1" xmlns="http://www.w3.org/2000/svg" xmlns:xlink="http://www.w3.org/1999/xlink" x="0px" y="0px"
	 viewBox="0 0 348.7 233.9" style="enable-background:new 0 0 348.7 233.9;" xml:space="preserve">
<style type="text/css">
	.st0{fill:#4A8CFF;}
	.st1{clip-path:url(#SVGID_1_);}
	.st2{fill:#E5E5E4;}
	.st3{clip-path:url(#SVGID_2_);}
	.st4{fill:#FFFFFF;}
	.st5{clip-path:url(#SVGID_3_);}
	.st6{clip-path:url(#SVGID_4_);}
</style>
<g id="Layer_x0020_1">
	<g id="_1848508970096">
		<rect y="0" class="st0" width="348.7" height="233.9"/>
		<g>
			<g>
				<g>
					<defs>
						<circle id="SVGID_9_" cx="176.5" cy="117.4" r="62.1"/>
					</defs>
					<clipPath id="SVGID_1_">
						<use xlink:href="#SVGID_9_"  style="overflow:visible;"/>
					</clipPath>
					<g class="st1">
						<path class="st2" d="M111.3,52.3h130.3v130.3H111.3V52.3z"/>
					</g>
				</g>
			</g>
			<g>
				<g>
					<defs>
						<circle id="SVGID_11_" cx="176.5" cy="117.4" r="60.9"/>
					</defs>
					<clipPath id="SVGID_2_">
						<use xlink:href="#SVGID_11_"  style="overflow:visible;"/>
					</clipPath>
					<g class="st3">
						<path class="st4" d="M112.6,53.5h127.9v127.9H112.6V53.5z"/>
					</g>
				</g>
			</g>
			<g>
				<g>
					<defs>
						<circle id="SVGID_13_" cx="176.5" cy="117.4" r="56"/>
					</defs>
					<clipPath id="SVGID_3_">
						<use xlink:href="#SVGID_13_"  style="overflow:visible;"/>
					</clipPath>
					<g class="st5">
						<path class="st0" d="M117.4,58.4h118.1v118.1H117.4V58.4z"/>
					</g>
				</g>
			</g>
			<g>
				<g>
					<defs>
						<path id="SVGID_15_" d="M193.5,110.2l15.8-11.6c1.4-1.1,2.4-0.9,2.4,1.2v35.3c0,2.3-1.3,2.1-2.4,1.2l-15.8-11.6V110.2z
							 M139.9,99.9v26.3c0,6,4.9,10.8,10.8,10.7h38.4c1.1,0,2-0.9,2-2v-26.3c0-6-4.9-10.8-10.8-10.7h-38.4
							C140.8,98,140,98.8,139.9,99.9z"/>
					</defs>
					<clipPath id="SVGID_4_">
						<use xlink:href="#SVGID_15_"  style="overflow:visible;"/>
					</clipPath>
					<g class="st6">
						<path class="st4" d="M136.9,94.9h77.9v45h-77.9V94.9z"/>
					</g>
				</g>
			</g>
		</g>
	</g>
</g>
</svg>
